<svg preserveAspectRatio="none" width="100%" height="100%" overflow="visible" style="display: block;" viewBox="0 0 20 20" fill="none" xmlns="http://www.w3.org/2000/svg">
<path id="Vector" d="M9.75 0C4.37391 0 0 4.37391 0 9.75C0 15.1261 4.37391 19.5 9.75 19.5C15.1261 19.5 19.5 15.1261 19.5 9.75C19.5 4.37391 15.1261 0 9.75 0ZM14.8242 6.48234L8.52422 13.9823C8.45511 14.0647 8.36912 14.1312 8.27207 14.1773C8.17502 14.2235 8.06918 14.2483 7.96172 14.25H7.94906C7.84394 14.25 7.74 14.2278 7.64398 14.185C7.54797 14.1422 7.46202 14.0797 7.39172 14.0016L4.69172 11.0016C4.62315 10.9288 4.56981 10.8431 4.53483 10.7495C4.49986 10.6559 4.48395 10.5562 4.48805 10.4563C4.49215 10.3564 4.51617 10.2584 4.5587 10.1679C4.60124 10.0775 4.66142 9.99643 4.73572 9.92957C4.81002 9.8627 4.89694 9.81137 4.99136 9.77857C5.08579 9.74578 5.18581 9.73219 5.28556 9.73861C5.38531 9.74502 5.48277 9.77131 5.57222 9.81594C5.66166 9.86056 5.74128 9.9226 5.80641 9.99844L7.92938 12.3572L13.6758 5.51766C13.8047 5.36863 13.987 5.27631 14.1835 5.26066C14.3799 5.24501 14.5746 5.30728 14.7254 5.43402C14.8763 5.56075 14.9712 5.74176 14.9897 5.93793C15.0082 6.1341 14.9488 6.32966 14.8242 6.48234V6.48234Z" fill="var(--fill-0, #333333)"/>
</svg>
