<svg preserveAspectRatio="none" width="100%" height="100%" overflow="visible" style="display: block;" viewBox="0 0 21 20" fill="none" xmlns="http://www.w3.org/2000/svg">
<path id="Vector" fill-rule="evenodd" clip-rule="evenodd" d="M3.37287 3.03984e-06L3.375 0H17.625V0.75L17.6271 3.03984e-06C18.5209 0.00254573 19.3773 0.358716 20.0093 0.990701C20.6413 1.62268 20.9975 2.47911 21 3.37287L21 3.375V12.375L21 12.3771C20.9975 13.2709 20.6413 14.1273 20.0093 14.7593C19.3773 15.3913 18.5209 15.7475 17.6271 15.75L17.625 15.75H10.0193L5.73028 19.326C5.50674 19.5124 5.19555 19.5526 4.93197 19.4292C4.66838 19.3058 4.5 19.041 4.5 18.75V15.75H3.375L3.37287 15.75C2.47911 15.7475 1.62268 15.3913 0.990701 14.7593C0.358716 14.1273 0.00254573 13.2709 3.03984e-06 12.3771L0 12.375V3.375L3.03984e-06 3.37287C0.00254573 2.47911 0.358716 1.62268 0.990701 0.990701C1.62268 0.358716 2.47911 0.00254573 3.37287 3.03984e-06ZM10.1239 15.6628C10.1237 15.663 10.1236 15.6631 10.1234 15.6632L10.1239 15.6628ZM17.6238 1.5H3.37615C2.8791 1.50167 2.40285 1.69987 2.05136 2.05136C1.69987 2.40285 1.50167 2.8791 1.5 3.37615V12.3738C1.50167 12.8709 1.69987 13.3471 2.05136 13.6986C2.40287 14.0501 2.87913 14.2483 3.37621 14.25H5.25C5.66421 14.25 6 14.5858 6 15V17.1482L9.16234 14.5116C9.16251 14.5114 9.16267 14.5113 9.16284 14.5111C9.36511 14.3424 9.62018 14.25 9.88359 14.25C9.88364 14.25 9.88369 14.25 9.88374 14.25H17.6238C18.1209 14.2483 18.5971 14.0501 18.9486 13.6986C19.3001 13.3471 19.4983 12.8709 19.5 12.3738V3.37621C19.4983 2.87913 19.3001 2.40287 18.9486 2.05136C18.5971 1.69987 18.1209 1.50167 17.6238 1.5Z" fill="var(--fill-0, #333333)"/>
</svg>
