<svg preserveAspectRatio="none" width="100%" height="100%" overflow="visible" style="display: block;" viewBox="0 0 20 20" fill="none" xmlns="http://www.w3.org/2000/svg">
<path id="Vector" fill-rule="evenodd" clip-rule="evenodd" d="M9.75 0C4.37391 0 0 4.37391 0 9.75C0 15.1261 4.37391 19.5 9.75 19.5C15.1261 19.5 19.5 15.1261 19.5 9.75C19.5 4.37391 15.1261 0 9.75 0ZM10.6236 11.7847L10.9374 5.11596L10.9352 5.1165C10.942 4.95631 10.9164 4.79637 10.8599 4.64633C10.8033 4.4963 10.717 4.35926 10.606 4.24347C10.4951 4.12768 10.3619 4.03554 10.2144 3.97259C10.0669 3.90965 9.90826 3.8772 9.74792 3.8772C9.58757 3.8772 9.42888 3.90965 9.28141 3.97259C9.13393 4.03554 9.00072 4.12768 8.8898 4.24347C8.77888 4.35926 8.69253 4.4963 8.63597 4.64633C8.5794 4.79637 8.55379 4.95631 8.56066 5.1165V5.11924L8.87442 11.7847C8.87442 12.0166 8.96657 12.2391 9.13058 12.4031C9.2946 12.5671 9.51705 12.6593 9.74901 12.6593C9.98096 12.6593 10.2034 12.5671 10.3674 12.4031C10.5315 12.2391 10.6236 12.0166 10.6236 11.7847ZM9.14276 15.4866C9.32254 15.6067 9.53391 15.6708 9.75013 15.6708C10.0401 15.6708 10.3181 15.5557 10.5232 15.3506C10.7282 15.1456 10.8434 14.8675 10.8434 14.5776C10.8434 14.3614 10.7792 14.15 10.6591 13.9702C10.539 13.7905 10.3683 13.6503 10.1685 13.5676C9.96873 13.4848 9.74892 13.4632 9.53685 13.5054C9.32478 13.5476 9.12999 13.6517 8.9771 13.8046C8.82421 13.9575 8.72009 14.1523 8.6779 14.3643C8.63572 14.5764 8.65737 14.7962 8.74012 14.996C8.82286 15.1957 8.96298 15.3665 9.14276 15.4866Z" fill="var(--fill-0, #333333)"/>
</svg>
