<svg preserveAspectRatio="none" width="100%" height="100%" overflow="visible" style="display: block;" viewBox="0 0 24 24" fill="none" xmlns="http://www.w3.org/2000/svg">
<g id="CircleDashed">
<path id="Vector" d="M9.02451 3.47427C8.99969 3.37885 8.99391 3.27948 9.00753 3.18183C9.02114 3.08418 9.05388 2.99017 9.10386 2.90519C9.15384 2.8202 9.22009 2.74591 9.29881 2.68655C9.37753 2.62719 9.46718 2.58394 9.56264 2.55927C11.1615 2.14691 12.8388 2.14691 14.4376 2.55927C14.6147 2.60461 14.7692 2.71306 14.8719 2.86426C14.9747 3.01545 15.0187 3.19896 14.9956 3.38031C14.9726 3.56166 14.8841 3.72835 14.7469 3.84906C14.6096 3.96977 14.4329 4.03619 14.2501 4.03583C14.1869 4.0355 14.1239 4.02731 14.0626 4.01145C12.7098 3.66253 11.2905 3.66253 9.93764 4.01145C9.74533 4.06106 9.54119 4.03237 9.37001 3.93166C9.19882 3.83095 9.07457 3.66646 9.02451 3.47427ZM5.04295 5.1702C3.88668 6.34763 3.04802 7.79916 2.60545 9.38895C2.55237 9.58065 2.57761 9.78559 2.67563 9.95868C2.77364 10.1318 2.93641 10.2588 3.12811 10.3119C3.31981 10.365 3.52475 10.3398 3.69784 10.2417C3.87093 10.1437 3.99799 9.98097 4.05108 9.78926C4.42521 8.44355 5.13487 7.21485 6.11358 6.21833C6.24159 6.07433 6.30928 5.88659 6.3026 5.69403C6.29592 5.50148 6.2154 5.31887 6.07772 5.18409C5.94004 5.0493 5.75577 4.97267 5.56311 4.97009C5.37046 4.9675 5.1842 5.03916 5.04295 5.1702ZM4.05108 14.2086C4.02473 14.1137 3.97995 14.0249 3.91928 13.9473C3.85861 13.8697 3.78326 13.8048 3.69751 13.7563C3.61176 13.7078 3.5173 13.6767 3.41952 13.6647C3.32174 13.6527 3.22256 13.6601 3.12764 13.6865C3.03272 13.7128 2.94392 13.7576 2.8663 13.8182C2.78869 13.8789 2.72378 13.9543 2.67529 14.04C2.62681 14.1258 2.59568 14.2202 2.5837 14.318C2.57171 14.4158 2.5791 14.515 2.60545 14.6099C3.04828 16.1996 3.88691 17.651 5.04295 18.8286C5.18244 18.9705 5.37256 19.0511 5.5715 19.0528C5.77043 19.0545 5.96188 18.977 6.10373 18.8375C6.24558 18.6981 6.32621 18.5079 6.32788 18.309C6.32955 18.1101 6.25213 17.9186 6.11264 17.7768C5.13515 16.7806 4.4259 15.553 4.05108 14.2086ZM14.0626 19.9902C12.7098 20.3395 11.2905 20.3395 9.93764 19.9902C9.84173 19.9639 9.74155 19.9569 9.64291 19.9696C9.54427 19.9824 9.44916 20.0146 9.3631 20.0644C9.27703 20.1143 9.20175 20.1808 9.14162 20.26C9.08149 20.3392 9.03772 20.4296 9.01285 20.5259C8.98798 20.6222 8.98252 20.7225 8.99677 20.8209C9.01103 20.9193 9.04472 21.014 9.09588 21.0992C9.14704 21.1845 9.21466 21.2588 9.29479 21.3177C9.37492 21.3766 9.46597 21.419 9.56264 21.4424C11.1615 21.8547 12.8388 21.8547 14.4376 21.4424C14.6275 21.3902 14.7893 21.2655 14.888 21.0951C14.9867 20.9247 15.0144 20.7223 14.9652 20.5316C14.916 20.341 14.7937 20.1773 14.6248 20.076C14.456 19.9747 14.254 19.9439 14.0626 19.9902ZM20.8736 13.6883C20.7786 13.662 20.6793 13.6546 20.5815 13.6666C20.4837 13.6787 20.3892 13.7099 20.3034 13.7585C20.2177 13.8071 20.1423 13.8721 20.0817 13.9498C20.0211 14.0275 19.9764 14.1164 19.9501 14.2115C19.5762 15.557 18.8665 16.7854 17.8876 17.7815C17.8186 17.8518 17.7641 17.935 17.7273 18.0263C17.6904 18.1177 17.672 18.2154 17.6729 18.3139C17.6738 18.4124 17.6941 18.5097 17.7326 18.6004C17.7712 18.6911 17.8272 18.7732 17.8975 18.8422C17.9678 18.9112 18.051 18.9657 18.1423 19.0026C18.2337 19.0394 18.3314 19.0579 18.4299 19.057C18.5284 19.0561 18.6258 19.0358 18.7164 18.9972C18.8071 18.9587 18.8893 18.9027 18.9583 18.8324C20.1147 17.6551 20.9534 16.2035 21.3958 14.6136C21.4224 14.5186 21.43 14.4192 21.4182 14.3212C21.4064 14.2232 21.3753 14.1285 21.3268 14.0426C21.2783 13.9566 21.2133 13.8811 21.1355 13.8203C21.0577 13.7595 20.9687 13.7146 20.8736 13.6883ZM19.9492 9.79395C19.9755 9.88887 20.0203 9.97768 20.081 10.0553C20.1417 10.1329 20.217 10.1978 20.3028 10.2463C20.3885 10.2948 20.483 10.3259 20.5808 10.3379C20.6785 10.3499 20.7777 10.3425 20.8726 10.3161C20.9676 10.2898 21.0564 10.245 21.134 10.1843C21.2116 10.1237 21.2765 10.0483 21.325 9.96257C21.3735 9.87682 21.4046 9.78236 21.4166 9.68458C21.4286 9.5868 21.4212 9.48762 21.3948 9.3927C20.9524 7.80283 20.1138 6.35126 18.9573 5.17395C18.8883 5.10372 18.806 5.04777 18.7153 5.00931C18.6247 4.97085 18.5273 4.95063 18.4288 4.9498C18.3303 4.94898 18.2326 4.96756 18.1413 5.00449C18.0499 5.04142 17.9668 5.09598 17.8965 5.16505C17.8263 5.23411 17.7704 5.31634 17.7319 5.40703C17.6934 5.49771 17.6732 5.59509 17.6724 5.69359C17.6716 5.79209 17.6902 5.8898 17.7271 5.98112C17.764 6.07244 17.8186 6.15559 17.8876 6.22583C18.8655 7.2214 19.5748 8.44874 19.9492 9.79301V9.79395Z" fill="var(--fill-0, #353535)"/>
</g>
</svg>
