<svg preserveAspectRatio="none" width="100%" height="100%" overflow="visible" style="display: block;" viewBox="0 0 23 13" fill="none" xmlns="http://www.w3.org/2000/svg">
<g id="Vector">
<path d="M21.375 2.25H1.125C0.826631 2.25 0.540483 2.13147 0.329505 1.9205C0.118526 1.70952 0 1.42337 0 1.125C0 0.826631 0.118526 0.540483 0.329505 0.329505C0.540483 0.118526 0.826631 0 1.125 0H21.375C21.6734 0 21.9595 0.118526 22.1705 0.329505C22.3815 0.540483 22.5 0.826631 22.5 1.125C22.5 1.42337 22.3815 1.70952 22.1705 1.9205C21.9595 2.13147 21.6734 2.25 21.375 2.25Z" fill="#333333"/>
<path d="M17.625 7.5H4.875C4.57663 7.5 4.29048 7.38147 4.0795 7.17049C3.86853 6.95952 3.75 6.67337 3.75 6.375C3.75 6.07663 3.86853 5.79048 4.0795 5.5795C4.29048 5.36853 4.57663 5.25 4.875 5.25H17.625C17.9234 5.25 18.2095 5.36853 18.4205 5.5795C18.6315 5.79048 18.75 6.07663 18.75 6.375C18.75 6.67337 18.6315 6.95952 18.4205 7.17049C18.2095 7.38147 17.9234 7.5 17.625 7.5Z" fill="#333333"/>
<path d="M13.125 12.75H9.375C9.07663 12.75 8.79048 12.6315 8.5795 12.4205C8.36853 12.2095 8.25 11.9234 8.25 11.625C8.25 11.3266 8.36853 11.0405 8.5795 10.8295C8.79048 10.6185 9.07663 10.5 9.375 10.5H13.125C13.4234 10.5 13.7095 10.6185 13.9205 10.8295C14.1315 11.0405 14.25 11.3266 14.25 11.625C14.25 11.9234 14.1315 12.2095 13.9205 12.4205C13.7095 12.6315 13.4234 12.75 13.125 12.75Z" fill="#333333"/>
</g>
</svg>
