<svg preserveAspectRatio="none" width="100%" height="100%" overflow="visible" style="display: block;" viewBox="0 0 23 21" fill="none" xmlns="http://www.w3.org/2000/svg">
<path id="Vector" fill-rule="evenodd" clip-rule="evenodd" d="M12.2893 0.404669L15 2.99949V1.49918C15 1.08497 15.3358 0.749181 15.75 0.749181H18C18.4142 0.749181 18.75 1.08497 18.75 1.49918V6.58919L22.2686 9.9574C22.5678 10.2438 22.5782 10.7186 22.2918 11.0178C22.0054 11.317 21.5306 11.3274 21.2314 11.041L20.25 10.1015V19.4992C20.25 19.897 20.092 20.2785 19.8107 20.5598C19.5294 20.8411 19.1478 20.9992 18.75 20.9992H14.25C13.8358 20.9992 13.5 20.6634 13.5 20.2492V13.8742C13.5 13.7747 13.4605 13.6793 13.3902 13.609C13.3198 13.5387 13.2245 13.4992 13.125 13.4992H9.375C9.27555 13.4992 9.18016 13.5387 9.10984 13.609C9.03951 13.6793 9 13.7747 9 13.8742V20.2492C9 20.6634 8.66421 20.9992 8.25 20.9992H3.75C3.35218 20.9992 2.97065 20.8411 2.68934 20.5598C2.40804 20.2785 2.25 19.897 2.25 19.4992V10.1015L1.26862 11.041C0.969406 11.3274 0.494645 11.317 0.208217 11.0178C-0.0782105 10.7186 -0.0678413 10.2438 0.231378 9.9574L10.2113 0.404051C10.5173 0.0938834 10.9342 -0.000568738 11.2529 2.5729e-06C11.5703 0.000571604 11.9858 0.0957984 12.2893 0.404669ZM3.75 8.66566V19.4992H7.5V13.8742C7.5 13.3769 7.69755 12.9 8.04918 12.5484C8.4008 12.1967 8.87772 11.9992 9.375 11.9992H13.125C13.6223 11.9992 14.0992 12.1967 14.4508 12.5484C14.8025 12.9 15 13.3769 15 13.8742V19.4992H18.75V8.66566L11.265 1.50065C11.2605 1.50025 11.2555 1.50001 11.2502 1.5C11.2448 1.49999 11.2397 1.50023 11.235 1.50064L3.75 8.66566ZM17.25 5.15331V2.24918H16.5V4.43537L17.25 5.15331Z" fill="var(--fill-0, #333333)"/>
</svg>
