<svg preserveAspectRatio="none" width="100%" height="100%" overflow="visible" style="display: block;" viewBox="0 0 20 20" fill="none" xmlns="http://www.w3.org/2000/svg">
<path id="Vector" d="M9.75 0C4.37391 0 0 4.37391 0 9.75C0 15.1261 4.37391 19.5 9.75 19.5C15.1261 19.5 19.5 15.1261 19.5 9.75C19.5 4.37391 15.1261 0 9.75 0ZM7.39594 5.47594C7.98984 4.84641 8.82563 4.5 9.75 4.5C10.6744 4.5 11.5027 4.84875 12.0989 5.48156C12.7031 6.12281 12.997 6.98437 12.9277 7.91062C12.7889 9.75 11.3639 11.25 9.75 11.25C8.13609 11.25 6.70828 9.75 6.57234 7.91016C6.50344 6.97641 6.79687 6.11203 7.39594 5.47594ZM9.75 18C8.64866 18.0007 7.55838 17.7803 6.54382 17.3518C5.52927 16.9232 4.61109 16.2953 3.84375 15.5053C4.28323 14.8786 4.8432 14.3457 5.49094 13.9378C6.68578 13.1719 8.19797 12.75 9.75 12.75C11.302 12.75 12.8142 13.1719 14.0077 13.9378C14.6559 14.3455 15.2164 14.8784 15.6562 15.5053C14.889 16.2954 13.9708 16.9234 12.9562 17.3519C11.9417 17.7804 10.8514 18.0008 9.75 18V18Z" fill="var(--fill-0, #333333)"/>
</svg>
