<svg preserveAspectRatio="none" width="100%" height="100%" overflow="visible" style="display: block;" viewBox="0 0 18 21" fill="none" xmlns="http://www.w3.org/2000/svg">
<path id="Vector" d="M0.75 21C0.551088 21 0.360322 20.921 0.21967 20.7803C0.0790178 20.6397 0 20.4489 0 20.25V1.69359C5.36592e-05 1.49709 0.0515787 1.30402 0.149446 1.13362C0.247312 0.963213 0.388107 0.821416 0.557813 0.722344C1.125 0.392812 2.26781 0 4.5 0C6.24422 0 8.19516 0.689531 9.91641 1.2975C11.3025 1.78734 12.6117 2.25 13.5 2.25C14.6435 2.24649 15.7748 2.01544 16.8281 1.57031C16.9564 1.51617 17.0961 1.49461 17.2347 1.50755C17.3733 1.52049 17.5066 1.56753 17.6226 1.64448C17.7386 1.72143 17.8338 1.82589 17.8996 1.94856C17.9655 2.07122 18 2.20828 18 2.3475V12.63C17.9998 12.8123 17.9465 12.9905 17.8466 13.1429C17.7467 13.2954 17.6045 13.4154 17.4375 13.4883C17.0292 13.6669 15.5386 14.25 13.5 14.25C12.3684 14.25 10.9509 13.9153 9.45047 13.5605C7.76391 13.162 6.02016 12.75 4.5 12.75C2.77172 12.75 1.88719 13.0116 1.5 13.177V20.25C1.5 20.4489 1.42098 20.6397 1.28033 20.7803C1.13968 20.921 0.948912 21 0.75 21Z" fill="var(--fill-0, #333333)"/>
</svg>
