<svg preserveAspectRatio="none" width="100%" height="100%" overflow="visible" style="display: block;" viewBox="0 0 17 16" fill="none" xmlns="http://www.w3.org/2000/svg">
<path id="Vector" fill-rule="evenodd" clip-rule="evenodd" d="M13.0245 8.82716C13.0438 8.87387 13.0331 8.92764 12.9974 8.96339L8.16789 13.7929C7.77737 14.1834 7.77737 14.8166 8.16789 15.2071C8.55842 15.5976 9.19158 15.5976 9.58211 15.2071L16.3321 8.45711C16.7226 8.06658 16.7226 7.43342 16.3321 7.04289L9.58211 0.292893C9.19158 -0.097631 8.55842 -0.0976309 8.16789 0.292893C7.77737 0.683417 7.77737 1.31658 8.16789 1.70711L12.9974 6.53661C13.0331 6.57236 13.0438 6.62613 13.0245 6.67283C13.0051 6.71954 12.9596 6.75 12.909 6.75L1 6.75C0.447716 6.75 -4.82823e-08 7.19771 0 7.75C4.82823e-08 8.30228 0.447716 8.75 1 8.75L12.909 8.75C12.9596 8.75 13.0051 8.78045 13.0245 8.82716Z" fill="var(--fill-0, white)"/>
</svg>
