<svg preserveAspectRatio="none" width="100%" height="100%" overflow="visible" style="display: block;" viewBox="0 0 20 20" fill="none" xmlns="http://www.w3.org/2000/svg">
<path id="Vector" fill-rule="evenodd" clip-rule="evenodd" d="M12.75 0.75C12.75 0.335786 13.0858 0 13.5 0H18.75C19.1642 0 19.5 0.335786 19.5 0.75V6C19.5 6.41421 19.1642 6.75 18.75 6.75C18.3358 6.75 18 6.41421 18 6V2.56066L8.78033 11.7803C8.48744 12.0732 8.01256 12.0732 7.71967 11.7803C7.42678 11.4874 7.42678 11.0126 7.71967 10.7197L16.9393 1.5H13.5C13.0858 1.5 12.75 1.16421 12.75 0.75ZM2.625 4.5C2.32663 4.5 2.04048 4.61853 1.8295 4.8295C1.61853 5.04048 1.5 5.32663 1.5 5.625V16.875C1.5 17.1734 1.61853 17.4595 1.8295 17.6705C2.04048 17.8815 2.32663 18 2.625 18H13.875C14.0227 18 14.169 17.9709 14.3055 17.9144C14.442 17.8578 14.566 17.775 14.6705 17.6705C14.775 17.566 14.8578 17.442 14.9144 17.3055C14.9709 17.169 15 17.0227 15 16.875V8.25C15 7.83579 15.3358 7.5 15.75 7.5C16.1642 7.5 16.5 7.83579 16.5 8.25V16.875C16.5 17.2197 16.4321 17.5611 16.3002 17.8795C16.1683 18.198 15.9749 18.4874 15.7312 18.7312C15.4874 18.9749 15.198 19.1683 14.8795 19.3002C14.5611 19.4321 14.2197 19.5 13.875 19.5H2.625C1.92881 19.5 1.26113 19.2234 0.768845 18.7312C0.276562 18.2389 0 17.5712 0 16.875V5.625C0 4.92881 0.276562 4.26113 0.768845 3.76884C1.26113 3.27656 1.92881 3 2.625 3H10.4756C10.8898 3 11.2256 3.33579 11.2256 3.75C11.2256 4.16421 10.8898 4.5 10.4756 4.5H2.625Z" fill="var(--fill-0, #333333)"/>
</svg>
