<svg preserveAspectRatio="none" width="100%" height="100%" overflow="visible" style="display: block;" viewBox="0 0 13 13" fill="none" xmlns="http://www.w3.org/2000/svg">
<path id="Vector" fill-rule="evenodd" clip-rule="evenodd" d="M0.292893 0.292893C0.683417 -0.097631 1.31658 -0.0976311 1.70711 0.292893L6.25 4.83579L10.7929 0.292893C11.1834 -0.0976311 11.8166 -0.0976311 12.2071 0.292893C12.5976 0.683417 12.5976 1.31658 12.2071 1.70711L7.66421 6.25L12.2071 10.7929C12.5976 11.1834 12.5976 11.8166 12.2071 12.2071C11.8166 12.5976 11.1834 12.5976 10.7929 12.2071L6.25 7.66421L1.70711 12.2071C1.31658 12.5976 0.683417 12.5976 0.292893 12.2071C-0.0976311 11.8166 -0.0976311 11.1834 0.292893 10.7929L4.83579 6.25L0.292893 1.70711C-0.0976311 1.31658 -0.0976311 0.683417 0.292893 0.292893Z" fill="var(--fill-0, #333333)"/>
</svg>
