<svg preserveAspectRatio="none" width="100%" height="100%" overflow="visible" style="display: block;" viewBox="0 0 18 18" fill="none" xmlns="http://www.w3.org/2000/svg">
<path id="Vector" d="M1.69026 15.4412C1.69026 15.7173 1.91411 15.9412 2.19026 15.9412H2.72277C2.85532 15.9412 2.98244 15.8886 3.0762 15.7949L12.5202 6.35751L11.2807 5.11799L1.83683 14.5552C1.74298 14.649 1.69026 14.7762 1.69026 14.9089V15.4412ZM15.9828 5.25428L12.377 1.6484L13.5601 0.465223C13.8794 0.145952 14.2785 -0.00898787 14.7574 0.000402442C15.2363 0.00979276 15.6354 0.174123 15.9547 0.493394L17.166 1.70474C17.4853 2.02401 17.6449 2.41841 17.6449 2.88792C17.6449 3.35744 17.4853 3.75183 17.166 4.0711L15.9828 5.25428ZM0.845128 17.6314C0.60098 17.6314 0.399088 17.5516 0.239453 17.392C0.0798178 17.2323 0 17.0305 0 16.7863V14.3636C0 14.2509 0.0187806 14.1476 0.0563418 14.0537C0.0939031 13.9598 0.159635 13.8659 0.253538 13.772L11.3089 2.72346L14.9147 6.32933L3.85942 17.3779C3.76552 17.4718 3.67161 17.5375 3.57771 17.5751C3.48381 17.6127 3.38051 17.6314 3.26783 17.6314H0.845128Z" fill="var(--fill-0, #333333)"/>
</svg>
