<svg preserveAspectRatio="none" width="100%" height="100%" overflow="visible" style="display: block;" viewBox="0 0 16 17" fill="none" xmlns="http://www.w3.org/2000/svg">
<path id="Vector" d="M8.82716 13.0245C8.78046 13.0051 8.75 12.9596 8.75 12.909V1C8.75 0.447715 8.30229 0 7.75 0C7.19772 0 6.75 0.447715 6.75 1V12.909C6.75 12.9596 6.71954 13.0051 6.67284 13.0245C6.62613 13.0438 6.57236 13.0331 6.53661 12.9974L1.70711 8.16789C1.31658 7.77737 0.683417 7.77737 0.292893 8.16789C-0.0976311 8.55842 -0.0976311 9.19158 0.292893 9.58211L7.04289 16.3321C7.43342 16.7226 8.06658 16.7226 8.45711 16.3321L15.2071 9.58211C15.5976 9.19158 15.5976 8.55842 15.2071 8.16789C14.8166 7.77737 14.1834 7.77737 13.7929 8.16789L8.96339 12.9974C8.92764 13.0331 8.87387 13.0438 8.82716 13.0245Z" fill="var(--fill-0, #333333)"/>
</svg>
