<svg preserveAspectRatio="none" width="100%" height="100%" overflow="visible" style="display: block;" viewBox="0 0 20 20" fill="none" xmlns="http://www.w3.org/2000/svg">
<path id="Vector" d="M9.75 0C4.37391 0 0 4.37391 0 9.75C0 15.1261 4.37391 19.5 9.75 19.5C15.1261 19.5 19.5 15.1261 19.5 9.75C19.5 4.37391 15.1261 0 9.75 0ZM13.2802 12.2198C13.3527 12.2888 13.4108 12.3716 13.4508 12.4633C13.4909 12.555 13.5122 12.6539 13.5135 12.754C13.5148 12.8541 13.496 12.9534 13.4583 13.0461C13.4206 13.1389 13.3647 13.2231 13.2939 13.2939C13.2231 13.3647 13.1389 13.4206 13.0461 13.4583C12.9534 13.496 12.8541 13.5148 12.754 13.5135C12.6539 13.5122 12.555 13.4909 12.4633 13.4508C12.3716 13.4108 12.2888 13.3527 12.2198 13.2802L9.75 10.8108L7.28016 13.2802C7.13836 13.4149 6.94955 13.4889 6.75398 13.4864C6.5584 13.4839 6.37155 13.4051 6.23325 13.2668C6.09495 13.1285 6.01614 12.9416 6.01364 12.746C6.01114 12.5505 6.08513 12.3616 6.21984 12.2198L8.68922 9.75L6.21984 7.28016C6.08513 7.13836 6.01114 6.94955 6.01364 6.75398C6.01614 6.5584 6.09495 6.37155 6.23325 6.23325C6.37155 6.09495 6.5584 6.01614 6.75398 6.01364C6.94955 6.01114 7.13836 6.08513 7.28016 6.21984L9.75 8.68922L12.2198 6.21984C12.3616 6.08513 12.5505 6.01114 12.746 6.01364C12.9416 6.01614 13.1285 6.09495 13.2668 6.23325C13.4051 6.37155 13.4839 6.5584 13.4864 6.75398C13.4889 6.94955 13.4149 7.13836 13.2802 7.28016L10.8108 9.75L13.2802 12.2198Z" fill="var(--fill-0, #333333)"/>
</svg>
