<svg preserveAspectRatio="none" width="100%" height="100%" overflow="visible" style="display: block;" viewBox="0 0 20 20" fill="none" xmlns="http://www.w3.org/2000/svg">
<g id="Vector">
<path d="M9.75 10.9688C10.4231 10.9688 10.9688 10.4231 10.9688 9.75C10.9688 9.0769 10.4231 8.53125 9.75 8.53125C9.0769 8.53125 8.53125 9.0769 8.53125 9.75C8.53125 10.4231 9.0769 10.9688 9.75 10.9688Z" fill="#333333"/>
<path d="M9.75 15.1875C10.4231 15.1875 10.9688 14.6418 10.9688 13.9688C10.9688 13.2957 10.4231 12.75 9.75 12.75C9.0769 12.75 8.53125 13.2957 8.53125 13.9688C8.53125 14.6418 9.0769 15.1875 9.75 15.1875Z" fill="#333333"/>
<path d="M9.75 6.75C10.4231 6.75 10.9688 6.20435 10.9688 5.53125C10.9688 4.85815 10.4231 4.3125 9.75 4.3125C9.0769 4.3125 8.53125 4.85815 8.53125 5.53125C8.53125 6.20435 9.0769 6.75 9.75 6.75Z" fill="#333333"/>
<path fill-rule="evenodd" clip-rule="evenodd" d="M0 9.75C0 4.36704 4.36704 0 9.75 0C15.133 0 19.5 4.36704 19.5 9.75C19.5 15.133 15.133 19.5 9.75 19.5C4.36704 19.5 0 15.133 0 9.75ZM9.75 1.5C5.19546 1.5 1.5 5.19546 1.5 9.75C1.5 14.3045 5.19546 18 9.75 18C14.3045 18 18 14.3045 18 9.75C18 5.19546 14.3045 1.5 9.75 1.5Z" fill="#333333"/>
</g>
</svg>
