<svg preserveAspectRatio="none" width="100%" height="100%" overflow="visible" style="display: block;" viewBox="0 0 17 17" fill="none" xmlns="http://www.w3.org/2000/svg">
<path id="Vector" fill-rule="evenodd" clip-rule="evenodd" d="M0.390524 0.390524C0.911223 -0.130175 1.75544 -0.130175 2.27614 0.390524L8.33333 6.44772L14.3905 0.390525C14.9112 -0.130175 15.7554 -0.130175 16.2761 0.390524C16.7968 0.911223 16.7968 1.75544 16.2761 2.27614L10.219 8.33333L16.2761 14.3905C16.7968 14.9112 16.7968 15.7554 16.2761 16.2761C15.7554 16.7968 14.9112 16.7968 14.3905 16.2761L8.33333 10.219L2.27614 16.2761C1.75544 16.7968 0.911223 16.7968 0.390524 16.2761C-0.130175 15.7554 -0.130175 14.9112 0.390524 14.3905L6.44772 8.33333L0.390524 2.27614C-0.130175 1.75544 -0.130175 0.911223 0.390524 0.390524Z" fill="var(--fill-0, #80B7E1)"/>
</svg>
