<svg preserveAspectRatio="none" width="100%" height="100%" overflow="visible" style="display: block;" viewBox="0 0 23 12" fill="none" xmlns="http://www.w3.org/2000/svg">
<path id="Vector" fill-rule="evenodd" clip-rule="evenodd" d="M0 0.75C0 0.335786 0.335786 0 0.75 0H21.75C22.1642 0 22.5 0.335786 22.5 0.75C22.5 1.16421 22.1642 1.5 21.75 1.5H0.75C0.335786 1.5 0 1.16421 0 0.75ZM3.75 6C3.75 5.58579 4.08579 5.25 4.5 5.25H18C18.4142 5.25 18.75 5.58579 18.75 6C18.75 6.41421 18.4142 6.75 18 6.75H4.5C4.08579 6.75 3.75 6.41421 3.75 6ZM8.25 11.25C8.25 10.8358 8.58579 10.5 9 10.5H13.5C13.9142 10.5 14.25 10.8358 14.25 11.25C14.25 11.6642 13.9142 12 13.5 12H9C8.58579 12 8.25 11.6642 8.25 11.25Z" fill="var(--fill-0, #333333)"/>
</svg>
