<svg preserveAspectRatio="none" width="100%" height="100%" overflow="visible" style="display: block;" viewBox="0 0 16 23" fill="none" xmlns="http://www.w3.org/2000/svg">
<path id="Vector" d="M14.2324 12.8965C15.1934 12.8965 15.7122 14.0241 15.0869 14.7539L8.53418 22.3994C8.42857 22.5226 8.29781 22.6217 8.15039 22.6895C8.00305 22.7572 7.84283 22.792 7.68066 22.792C7.5184 22.792 7.35738 22.7572 7.20996 22.6895C7.06269 22.6217 6.9317 22.5225 6.82617 22.3994L0.274414 14.7539C-0.352697 14.0242 0.165265 12.8968 1.12598 12.8965H14.2324ZM7.67871 0C7.84097 1.41852e-08 8.00199 0.034748 8.14941 0.102539C8.29677 0.17031 8.42762 0.269462 8.5332 0.392578L15.085 8.03906C15.7121 8.76886 15.1942 9.89634 14.2334 9.89648H1.12695C0.16614 9.89647 -0.352501 8.76891 0.272461 8.03906L6.8252 0.392578C6.93079 0.269464 7.06162 0.170303 7.20898 0.102539C7.35627 0.0348123 7.51661 6.42382e-05 7.67871 0Z" fill="var(--fill-0, #333333)"/>
</svg>
