<svg preserveAspectRatio="none" width="100%" height="100%" overflow="visible" style="display: block;" viewBox="0 0 21 17" fill="none" xmlns="http://www.w3.org/2000/svg">
<g id="Vector">
<path fill-rule="evenodd" clip-rule="evenodd" d="M2.625 1.5C2.00368 1.5 1.5 2.00368 1.5 2.625V13.875C1.5 14.4963 2.00368 15 2.625 15H18.375C18.9963 15 19.5 14.4963 19.5 13.875V2.625C19.5 2.00368 18.9963 1.5 18.375 1.5H2.625ZM0 2.625C0 1.17525 1.17525 0 2.625 0H18.375C19.8247 0 21 1.17525 21 2.625V13.875C21 15.3247 19.8247 16.5 18.375 16.5H2.625C1.17525 16.5 0 15.3247 0 13.875V2.625Z" fill="#0070C4"/>
<path fill-rule="evenodd" clip-rule="evenodd" d="M3.15799 3.28954C3.41229 2.96258 3.8835 2.90368 4.21046 3.15799L10.5 8.04985L16.7895 3.15799C17.1165 2.90368 17.5877 2.96258 17.842 3.28954C18.0963 3.61651 18.0374 4.08771 17.7105 4.34201L10.9605 9.59201C10.6896 9.80266 10.3104 9.80266 10.0395 9.59201L3.28954 4.34201C2.96258 4.08771 2.90368 3.61651 3.15799 3.28954Z" fill="#0070C4"/>
</g>
</svg>
