<svg preserveAspectRatio="none" width="100%" height="100%" overflow="visible" style="display: block;" viewBox="0 0 21 19" fill="none" xmlns="http://www.w3.org/2000/svg">
<g id="Vector">
<path fill-rule="evenodd" clip-rule="evenodd" d="M14.9984 1C15.4623 1 15.8383 1.37604 15.8383 1.83991V15.7704L18.604 13.0047C18.932 12.6767 19.4638 12.6767 19.7918 13.0047C20.1198 13.3327 20.1198 13.8645 19.7918 14.1925L15.5923 18.392C15.2643 18.72 14.7325 18.72 14.4045 18.392L10.205 14.1925C9.87698 13.8645 9.87698 13.3327 10.205 13.0047C10.533 12.6767 11.0648 12.6767 11.3928 13.0047L14.1585 15.7704V1.83991C14.1585 1.37604 14.5345 1 14.9984 1Z" fill="var(--fill-0, #0070C4)"/>
<path fill-rule="evenodd" clip-rule="evenodd" d="M6.03943 18.638C5.57556 18.638 5.19952 18.262 5.19952 17.7981L5.19952 3.86761L2.43381 6.63333C2.1058 6.96133 1.57401 6.96133 1.246 6.63333C0.917999 6.30533 0.917999 5.77353 1.246 5.44553L5.44553 1.246C5.77353 0.917999 6.30533 0.917999 6.63333 1.246L10.8329 5.44553C11.1609 5.77353 11.1609 6.30533 10.8329 6.63333C10.5049 6.96133 9.97305 6.96133 9.64505 6.63333L6.87933 3.86761L6.87933 17.7981C6.87933 18.262 6.50329 18.638 6.03943 18.638Z" fill="var(--fill-0, #0070C4)"/>
<path fill-rule="evenodd" clip-rule="evenodd" d="M14.9984 1C15.4623 1 15.8383 1.37604 15.8383 1.83991V15.7704L18.604 13.0047C18.932 12.6767 19.4638 12.6767 19.7918 13.0047C20.1198 13.3327 20.1198 13.8645 19.7918 14.1925L15.5923 18.392C15.2643 18.72 14.7325 18.72 14.4045 18.392L10.205 14.1925C9.87698 13.8645 9.87698 13.3327 10.205 13.0047C10.533 12.6767 11.0648 12.6767 11.3928 13.0047L14.1585 15.7704V1.83991C14.1585 1.37604 14.5345 1 14.9984 1Z" stroke="var(--stroke-0, #0070C4)" stroke-width="0.2" stroke-linecap="round" stroke-linejoin="round"/>
<path fill-rule="evenodd" clip-rule="evenodd" d="M6.03943 18.638C5.57556 18.638 5.19952 18.262 5.19952 17.7981L5.19952 3.86761L2.43381 6.63333C2.1058 6.96133 1.57401 6.96133 1.246 6.63333C0.917999 6.30533 0.917999 5.77353 1.246 5.44553L5.44553 1.246C5.77353 0.917999 6.30533 0.917999 6.63333 1.246L10.8329 5.44553C11.1609 5.77353 11.1609 6.30533 10.8329 6.63333C10.5049 6.96133 9.97305 6.96133 9.64505 6.63333L6.87933 3.86761L6.87933 17.7981C6.87933 18.262 6.50329 18.638 6.03943 18.638Z" stroke="var(--stroke-0, #0070C4)" stroke-width="0.2" stroke-linecap="round" stroke-linejoin="round"/>
</g>
</svg>
