<svg preserveAspectRatio="none" width="100%" height="100%" overflow="visible" style="display: block;" viewBox="0 0 16 16" fill="none" xmlns="http://www.w3.org/2000/svg">
<path id="Vector" d="M8.75 1C8.75 0.447715 8.30229 0 7.75 0C7.19771 0 6.75 0.447715 6.75 1V6.75H1C0.447715 6.75 0 7.19771 0 7.75C0 8.30229 0.447715 8.75 1 8.75H6.75V14.5C6.75 15.0523 7.19771 15.5 7.75 15.5C8.30229 15.5 8.75 15.0523 8.75 14.5V8.75H14.5C15.0523 8.75 15.5 8.30229 15.5 7.75C15.5 7.19771 15.0523 6.75 14.5 6.75H8.75V1Z" fill="var(--fill-0, #333333)"/>
</svg>
