<svg preserveAspectRatio="none" width="100%" height="100%" overflow="visible" style="display: block;" viewBox="0 0 14 13" fill="none" xmlns="http://www.w3.org/2000/svg">
<path id="Vector" fill-rule="evenodd" clip-rule="evenodd" d="M10.8537 7.35597C10.8699 7.39489 10.861 7.4397 10.8312 7.46949L6.80658 11.4941C6.48114 11.8195 6.48114 12.3472 6.80658 12.6726C7.13201 12.998 7.65965 12.998 7.98509 12.6726L13.6101 7.04759C13.9355 6.72215 13.9355 6.19451 13.6101 5.86908L7.98509 0.244077C7.65965 -0.0813592 7.13201 -0.0813591 6.80658 0.244077C6.48114 0.569514 6.48114 1.09715 6.80658 1.42259L10.8312 5.44718C10.861 5.47697 10.8699 5.52177 10.8537 5.5607C10.8376 5.59962 10.7996 5.625 10.7575 5.625L0.833333 5.625C0.373096 5.625 -4.02353e-08 5.9981 0 6.45833C4.02352e-08 6.91857 0.373097 7.29167 0.833333 7.29167L10.7575 7.29167C10.7996 7.29167 10.8376 7.31704 10.8537 7.35597Z" fill="var(--fill-0, white)"/>
</svg>
