<svg preserveAspectRatio="none" width="100%" height="100%" overflow="visible" style="display: block;" viewBox="0 0 15 18" fill="none" xmlns="http://www.w3.org/2000/svg">
<path id="Vector" fill-rule="evenodd" clip-rule="evenodd" d="M5.93567 1.25C5.89484 1.24988 5.85438 1.25784 5.81664 1.27341C5.77889 1.28898 5.7446 1.31186 5.71572 1.34073C5.68685 1.3696 5.66397 1.4039 5.6484 1.44164C5.63283 1.47939 5.62488 1.51984 5.625 1.56067L5.625 1.5625V2.5H9.375V1.5625L9.375 1.56067C9.37512 1.51984 9.36717 1.47939 9.3516 1.44164C9.33603 1.40389 9.31315 1.3696 9.28428 1.34073C9.25541 1.31186 9.22111 1.28898 9.18336 1.27341C9.14561 1.25784 9.10516 1.24988 9.06433 1.25L9.0625 1.25H5.9375L5.93567 1.25ZM2.54028 3.75L3.28003 15.586C3.28018 15.5883 3.28031 15.5906 3.28043 15.5929C3.30204 16.0136 3.5813 16.25 3.90625 16.25H11.0938C11.4155 16.25 11.6935 16.0188 11.7199 15.5869L12.4597 3.75H2.54028ZM13.1192 2.5H10.625V1.56343C10.6255 1.35814 10.5854 1.15477 10.5071 0.964981C10.4287 0.774918 10.3135 0.602228 10.1682 0.456845C10.0228 0.311462 9.85009 0.196258 9.66002 0.117857C9.47028 0.0395872 9.26695 -0.000461427 9.0617 4.01077e-06H5.9383C5.73305 -0.000461427 5.52972 0.039587 5.33998 0.117857C5.14991 0.196259 4.97722 0.311463 4.83184 0.456845C4.68646 0.602226 4.57125 0.774916 4.49285 0.964981C4.41458 1.15473 4.37453 1.35805 4.375 1.5633V2.5H1.88077C1.87733 2.49998 1.87388 2.49998 1.87042 2.5H0.625C0.279822 2.5 0 2.77983 0 3.125C0 3.47018 0.279822 3.75 0.625 3.75H1.28784L2.03227 15.6608C2.08657 16.683 2.85748 17.5 3.90625 17.5H11.0938C12.1524 17.5 12.9056 16.6758 12.9676 15.6632C12.9676 15.6632 12.9676 15.6632 12.9676 15.6631L13.7122 3.75H14.375C14.7202 3.75 15 3.47018 15 3.125C15 2.77983 14.7202 2.5 14.375 2.5H13.1296C13.1261 2.49998 13.1227 2.49998 13.1192 2.5ZM4.66519 5.0004C5.01015 4.98808 5.29978 5.25774 5.3121 5.6027L5.6246 14.3527C5.63692 14.6977 5.36727 14.9873 5.02231 14.9996C4.67735 15.0119 4.38772 14.7423 4.3754 14.3973L4.0629 5.64731C4.05058 5.30235 4.32023 5.01272 4.66519 5.0004ZM10.3348 5.0004C10.6798 5.01272 10.9494 5.30235 10.9371 5.64731L10.6246 14.3973C10.6123 14.7423 10.3227 15.0119 9.97769 14.9996C9.63273 14.9873 9.36308 14.6977 9.3754 14.3527L9.6879 5.6027C9.70022 5.25774 9.98985 4.98808 10.3348 5.0004ZM7.5 5C7.84518 5 8.125 5.27983 8.125 5.625V14.375C8.125 14.7202 7.84518 15 7.5 15C7.15482 15 6.875 14.7202 6.875 14.375V5.625C6.875 5.27983 7.15482 5 7.5 5Z" fill="var(--fill-0, white)"/>
</svg>
