<svg preserveAspectRatio="none" width="100%" height="100%" overflow="visible" style="display: block;" viewBox="0 0 15 15" fill="none" xmlns="http://www.w3.org/2000/svg">
<path id="Vector" fill-rule="evenodd" clip-rule="evenodd" d="M9.5625 0.5625C9.5625 0.25184 9.81434 0 10.125 0H14.0625C14.3732 0 14.625 0.25184 14.625 0.5625V4.5C14.625 4.81066 14.3732 5.0625 14.0625 5.0625C13.7518 5.0625 13.5 4.81066 13.5 4.5V1.9205L6.58525 8.83525C6.36558 9.05492 6.00942 9.05492 5.78975 8.83525C5.57008 8.61558 5.57008 8.25942 5.78975 8.03975L12.7045 1.125H10.125C9.81434 1.125 9.5625 0.87316 9.5625 0.5625ZM1.96875 3.375C1.74497 3.375 1.53036 3.46389 1.37213 3.62213C1.21389 3.78036 1.125 3.99497 1.125 4.21875V12.6562C1.125 12.88 1.21389 13.0946 1.37213 13.2529C1.53036 13.4111 1.74497 13.5 1.96875 13.5H10.4062C10.5171 13.5 10.6268 13.4782 10.7291 13.4358C10.8315 13.3934 10.9245 13.3312 11.0029 13.2529C11.0812 13.1745 11.1434 13.0815 11.1858 12.9791C11.2282 12.8768 11.25 12.7671 11.25 12.6562V6.1875C11.25 5.87684 11.5018 5.625 11.8125 5.625C12.1232 5.625 12.375 5.87684 12.375 6.1875V12.6562C12.375 12.9148 12.3241 13.1708 12.2251 13.4097C12.1262 13.6485 11.9812 13.8656 11.7984 14.0484C11.6156 14.2312 11.3985 14.3762 11.1597 14.4751C10.9208 14.5741 10.6648 14.625 10.4062 14.625H1.96875C1.44661 14.625 0.945846 14.4176 0.576633 14.0484C0.207421 13.6792 0 13.1784 0 12.6562V4.21875C0 3.6966 0.207421 3.19585 0.576633 2.82663C0.945846 2.45742 1.44661 2.25 1.96875 2.25H7.85672C8.16738 2.25 8.41922 2.50184 8.41922 2.8125C8.41922 3.12316 8.16738 3.375 7.85672 3.375H1.96875Z" fill="var(--fill-0, #0070C4)"/>
</svg>
