<svg preserveAspectRatio="none" width="100%" height="100%" overflow="visible" style="display: block;" viewBox="0 0 21 20" fill="none" xmlns="http://www.w3.org/2000/svg">
<path id="Vector" d="M20.2766 16.8539L11.6593 0.85096C11.0485 -0.283654 9.42146 -0.283654 8.81016 0.85096L0.193365 16.8539C0.0607465 17.1002 -0.00574205 17.3767 0.000388669 17.6564C0.00651939 17.936 0.08506 18.2094 0.228344 18.4496C0.371628 18.6899 0.574761 18.8889 0.817913 19.0272C1.06107 19.1656 1.33593 19.2385 1.61568 19.2389H18.8518C19.1318 19.2389 19.4069 19.1663 19.6504 19.0282C19.8939 18.89 20.0974 18.691 20.241 18.4507C20.3846 18.2104 20.4634 17.9369 20.4696 17.657C20.4758 17.3771 20.4094 17.1004 20.2766 16.8539V16.8539ZM10.235 16.7613C10.035 16.7613 9.83948 16.702 9.67318 16.5909C9.50689 16.4798 9.37727 16.3219 9.30073 16.1371C9.2242 15.9523 9.20417 15.749 9.24319 15.5528C9.28221 15.3567 9.37852 15.1765 9.51994 15.035C9.66137 14.8936 9.84155 14.7973 10.0377 14.7583C10.2339 14.7193 10.4372 14.7393 10.622 14.8158C10.8068 14.8924 10.9647 15.022 11.0758 15.1883C11.1869 15.3546 11.2462 15.5501 11.2462 15.7501C11.2462 15.8829 11.2201 16.0144 11.1693 16.1371C11.1184 16.2598 11.044 16.3713 10.9501 16.4652C10.8562 16.5591 10.7447 16.6335 10.622 16.6844C10.4993 16.7352 10.3678 16.7613 10.235 16.7613ZM11.3332 6.59077L11.043 12.7594C11.043 12.9739 10.9577 13.1797 10.806 13.3314C10.6543 13.4831 10.4485 13.5683 10.234 13.5683C10.0194 13.5683 9.81366 13.4831 9.66194 13.3314C9.51023 13.1797 9.425 12.9739 9.425 12.7594L9.13477 6.5933C9.12825 6.44596 9.15146 6.29881 9.20301 6.16063C9.25457 6.02244 9.33342 5.89606 9.43487 5.789C9.53631 5.68194 9.65827 5.5964 9.79348 5.53748C9.92869 5.47856 10.0744 5.44746 10.2219 5.44605H10.2325C10.381 5.44597 10.5279 5.47598 10.6645 5.53426C10.8011 5.59254 10.9244 5.67789 11.0271 5.78515C11.1298 5.89241 11.2096 6.01937 11.2619 6.15835C11.3142 6.29733 11.3377 6.44546 11.3312 6.59381L11.3332 6.59077Z" fill="var(--fill-0, #333333)"/>
</svg>
