<svg preserveAspectRatio="none" width="100%" height="100%" overflow="visible" style="display: block;" viewBox="0 0 13 13" fill="none" xmlns="http://www.w3.org/2000/svg">
<path id="Vector" d="M7.29167 0.833333C7.29167 0.373096 6.91857 0 6.45833 0C5.9981 0 5.625 0.373096 5.625 0.833333V5.625H0.833333C0.373096 5.625 0 5.9981 0 6.45833C0 6.91857 0.373096 7.29167 0.833333 7.29167H5.625V12.0833C5.625 12.5436 5.9981 12.9167 6.45833 12.9167C6.91857 12.9167 7.29167 12.5436 7.29167 12.0833V7.29167H12.0833C12.5436 7.29167 12.9167 6.91857 12.9167 6.45833C12.9167 5.9981 12.5436 5.625 12.0833 5.625H7.29167V0.833333Z" fill="var(--fill-0, white)"/>
</svg>
