<svg preserveAspectRatio="none" width="100%" height="100%" overflow="visible" style="display: block;" viewBox="0 0 17 16" fill="none" xmlns="http://www.w3.org/2000/svg">
<g id="Vector">
<path fill-rule="evenodd" clip-rule="evenodd" d="M12.6653 1C13.0519 1 13.3653 1.31337 13.3653 1.69992V13.3087L15.67 11.0039C15.9434 10.7306 16.3865 10.7306 16.6599 11.0039C16.9332 11.2772 16.9332 11.7204 16.6599 11.9937L13.1603 15.4933C12.8869 15.7667 12.4438 15.7667 12.1704 15.4933L8.67082 11.9937C8.39748 11.7204 8.39748 11.2772 8.67082 11.0039C8.94416 10.7306 9.38732 10.7306 9.66066 11.0039L11.9654 13.3087V1.69992C11.9654 1.31337 12.2788 1 12.6653 1Z" fill="var(--fill-0, #797676)"/>
<path fill-rule="evenodd" clip-rule="evenodd" d="M5.19952 15.6983C4.81297 15.6983 4.4996 15.385 4.4996 14.9984L4.4996 3.38968L2.19484 5.69444C1.9215 5.96778 1.47834 5.96778 1.205 5.69444C0.931666 5.42111 0.931666 4.97794 1.205 4.7046L4.70461 1.205C4.97794 0.931666 5.42111 0.931666 5.69444 1.205L9.19404 4.70461C9.46738 4.97794 9.46738 5.42111 9.19404 5.69444C8.92071 5.96778 8.47754 5.96778 8.20421 5.69444L5.89944 3.38968L5.89944 14.9984C5.89944 15.385 5.58608 15.6983 5.19952 15.6983Z" fill="var(--fill-0, #797676)"/>
<path fill-rule="evenodd" clip-rule="evenodd" d="M12.6653 1C13.0519 1 13.3653 1.31337 13.3653 1.69992V13.3087L15.67 11.0039C15.9434 10.7306 16.3865 10.7306 16.6599 11.0039C16.9332 11.2772 16.9332 11.7204 16.6599 11.9937L13.1603 15.4933C12.8869 15.7667 12.4438 15.7667 12.1704 15.4933L8.67082 11.9937C8.39748 11.7204 8.39748 11.2772 8.67082 11.0039C8.94416 10.7306 9.38732 10.7306 9.66066 11.0039L11.9654 13.3087V1.69992C11.9654 1.31337 12.2788 1 12.6653 1Z" stroke="var(--stroke-0, #797676)" stroke-width="0.166667" stroke-linecap="round" stroke-linejoin="round"/>
<path fill-rule="evenodd" clip-rule="evenodd" d="M5.19952 15.6983C4.81297 15.6983 4.4996 15.385 4.4996 14.9984L4.4996 3.38968L2.19484 5.69444C1.9215 5.96778 1.47834 5.96778 1.205 5.69444C0.931666 5.42111 0.931666 4.97794 1.205 4.7046L4.70461 1.205C4.97794 0.931666 5.42111 0.931666 5.69444 1.205L9.19404 4.70461C9.46738 4.97794 9.46738 5.42111 9.19404 5.69444C8.92071 5.96778 8.47754 5.96778 8.20421 5.69444L5.89944 3.38968L5.89944 14.9984C5.89944 15.385 5.58608 15.6983 5.19952 15.6983Z" stroke="var(--stroke-0, #797676)" stroke-width="0.166667" stroke-linecap="round" stroke-linejoin="round"/>
</g>
</svg>
