<svg preserveAspectRatio="none" width="100%" height="100%" overflow="visible" style="display: block;" viewBox="0 0 23 15" fill="none" xmlns="http://www.w3.org/2000/svg">
<path id="Vector" fill-rule="evenodd" clip-rule="evenodd" d="M0.267593 6.66448C3.3176 2.29251 7.27225 0 11.2341 0C15.8871 0 19.8953 3.03129 22.2601 6.68363L22.2612 6.68535C22.4177 6.9285 22.5009 7.21155 22.5009 7.5007C22.5009 7.78933 22.418 8.07187 22.262 8.31473C19.8993 12.0141 15.9171 15 11.2341 15C6.5013 15 2.5958 12.0203 0.238892 8.33172C0.0787427 8.08304 -0.00432099 7.79255 0.000173185 7.49677C0.00467854 7.20025 0.096976 6.91172 0.265402 6.66763L0.267593 6.66448ZM1.50001 7.51956L1.50208 7.52279C3.67901 10.9304 7.16813 13.5 11.2341 13.5C15.2545 13.5 18.8189 10.9195 20.9984 7.5065L20.9998 7.50426C21.0005 7.5032 21.0009 7.50196 21.0009 7.5007C21.0009 7.50017 21.0008 7.49965 21.0007 7.49914C21.0005 7.4985 21.0003 7.49787 20.9999 7.4973C18.8121 4.11915 15.2186 1.5 11.2341 1.5C7.88995 1.5 4.35025 3.43555 1.50001 7.51956ZM11.25 4.5C9.59319 4.5 8.25005 5.84315 8.25005 7.5C8.25005 9.15685 9.59319 10.5 11.25 10.5C12.9069 10.5 14.25 9.15685 14.25 7.5C14.25 5.84315 12.9069 4.5 11.25 4.5ZM6.75005 7.5C6.75005 5.01472 8.76476 3 11.25 3C13.7353 3 15.75 5.01472 15.75 7.5C15.75 9.98528 13.7353 12 11.25 12C8.76476 12 6.75005 9.98528 6.75005 7.5Z" fill="var(--fill-0, #333333)"/>
</svg>
