<svg preserveAspectRatio="none" width="100%" height="100%" overflow="visible" style="display: block;" viewBox="0 0 18 21" fill="none" xmlns="http://www.w3.org/2000/svg">
<path id="Vector" fill-rule="evenodd" clip-rule="evenodd" d="M7.1228 1.5C7.0738 1.49986 7.02526 1.5094 6.97997 1.52809C6.93467 1.54677 6.89352 1.57423 6.85887 1.60887C6.82422 1.64352 6.79677 1.68468 6.77808 1.72997C6.7594 1.77527 6.74985 1.82381 6.75 1.87281L6.75 1.875V3.00001H11.25V1.875L11.25 1.87281C11.2501 1.82381 11.2406 1.77527 11.2219 1.72997C11.2032 1.68467 11.1758 1.64352 11.1411 1.60887C11.1065 1.57423 11.0653 1.54677 11.02 1.52809C10.9747 1.5094 10.9262 1.49986 10.8772 1.5L10.875 1.5H7.125L7.1228 1.5ZM3.04834 4.50001L3.93604 18.7032C3.93621 18.706 3.93637 18.7088 3.93651 18.7115C3.96245 19.2163 4.29756 19.5 4.6875 19.5H13.3125C13.6986 19.5 14.0322 19.2226 14.0639 18.7043L14.9517 4.50001H3.04834ZM15.7431 3.00001H12.75V1.87612C12.7506 1.62977 12.7025 1.38572 12.6086 1.15798C12.5145 0.929901 12.3763 0.722673 12.2018 0.548214C12.0273 0.373754 11.8201 0.23551 11.592 0.141429C11.3643 0.0475046 11.1203 -0.000553712 10.874 4.81292e-06H7.12596C6.87966 -0.000553712 6.63567 0.0475045 6.40797 0.141429C6.17989 0.235511 5.97267 0.373756 5.79821 0.548214C5.62375 0.722672 5.48551 0.929899 5.39142 1.15798C5.2975 1.38567 5.24944 1.62966 5.25 1.87596V3.00001H2.25693C2.25279 2.99997 2.24865 2.99997 2.24451 3.00001H0.75C0.335786 3.00001 0 3.33579 0 3.75001C0 4.16422 0.335786 4.50001 0.75 4.50001H1.54541L2.43872 18.793C2.50388 20.0196 3.42898 21 4.6875 21H13.3125C14.5829 21 15.4868 20.0109 15.5611 18.7959C15.5611 18.7958 15.5611 18.7958 15.5611 18.7958L16.4546 4.50001H17.25C17.6642 4.50001 18 4.16422 18 3.75001C18 3.33579 17.6642 3.00001 17.25 3.00001H15.7555C15.7513 2.99997 15.7472 2.99997 15.7431 3.00001ZM5.59823 6.00048C6.01218 5.9857 6.35974 6.30929 6.37452 6.72324L6.74952 17.2232C6.76431 17.6372 6.44072 17.9847 6.02677 17.9995C5.61282 18.0143 5.26526 17.6907 5.25048 17.2768L4.87548 6.77677C4.86069 6.36282 5.18428 6.01527 5.59823 6.00048ZM12.4018 6.00048C12.8157 6.01527 13.1393 6.36282 13.1245 6.77677L12.7495 17.2768C12.7347 17.6907 12.3872 18.0143 11.9732 17.9995C11.5593 17.9847 11.2357 17.6372 11.2505 17.2232L11.6255 6.72324C11.6403 6.30929 11.9878 5.9857 12.4018 6.00048ZM9 6.00001C9.41421 6.00001 9.75 6.33579 9.75 6.75001V17.25C9.75 17.6642 9.41421 18 9 18C8.58579 18 8.25 17.6642 8.25 17.25V6.75001C8.25 6.33579 8.58579 6.00001 9 6.00001Z" fill="var(--fill-0, #333333)"/>
</svg>
