<svg preserveAspectRatio="none" width="100%" height="100%" overflow="visible" style="display: block;" viewBox="0 0 5 20" fill="none" xmlns="http://www.w3.org/2000/svg">
<g id="Vector">
<path fill-rule="evenodd" clip-rule="evenodd" d="M2.25 9C1.83579 9 1.5 9.33579 1.5 9.75C1.5 10.1642 1.83579 10.5 2.25 10.5C2.66421 10.5 3 10.1642 3 9.75C3 9.33579 2.66421 9 2.25 9ZM0 9.75C0 8.50736 1.00736 7.5 2.25 7.5C3.49264 7.5 4.5 8.50736 4.5 9.75C4.5 10.9926 3.49264 12 2.25 12C1.00736 12 0 10.9926 0 9.75Z" fill="#0070C4"/>
<path fill-rule="evenodd" clip-rule="evenodd" d="M2.25 16.5C1.83579 16.5 1.5 16.8358 1.5 17.25C1.5 17.6642 1.83579 18 2.25 18C2.66421 18 3 17.6642 3 17.25C3 16.8358 2.66421 16.5 2.25 16.5ZM0 17.25C0 16.0074 1.00736 15 2.25 15C3.49264 15 4.5 16.0074 4.5 17.25C4.5 18.4926 3.49264 19.5 2.25 19.5C1.00736 19.5 0 18.4926 0 17.25Z" fill="#0070C4"/>
<path fill-rule="evenodd" clip-rule="evenodd" d="M2.25 1.5C1.83579 1.5 1.5 1.83579 1.5 2.25C1.5 2.66421 1.83579 3 2.25 3C2.66421 3 3 2.66421 3 2.25C3 1.83579 2.66421 1.5 2.25 1.5ZM0 2.25C0 1.00736 1.00736 0 2.25 0C3.49264 0 4.5 1.00736 4.5 2.25C4.5 3.49264 3.49264 4.5 2.25 4.5C1.00736 4.5 0 3.49264 0 2.25Z" fill="#0070C4"/>
</g>
</svg>
