<svg preserveAspectRatio="none" width="100%" height="100%" overflow="visible" style="display: block;" viewBox="0 0 20 20" fill="none" xmlns="http://www.w3.org/2000/svg">
<path id="Vector" fill-rule="evenodd" clip-rule="evenodd" d="M14.3988 12.9562L14.4769 12.8521C15.5192 11.4645 16.0819 9.77559 16.08 8.04016C16.08 3.60707 12.4731 0 8.04 0C3.60691 0 0 3.60691 0 8.04C0 12.4731 3.60691 16.08 8.04 16.08C9.77542 16.0819 11.4645 15.5192 12.8521 14.4769L12.9562 14.3988L17.4557 18.8982C17.6499 19.0705 17.9026 19.1624 18.1622 19.1551C18.4233 19.1478 18.6716 19.0409 18.8562 18.8562C19.0409 18.6716 19.1478 18.4233 19.1551 18.1622C19.1624 17.9026 19.0705 17.6499 18.8982 17.4557L18.9013 17.4587L19.0073 17.3527L18.8955 17.4526L18.8982 17.4557L14.3988 12.9562ZM2.04 8.04C2.04 6.85331 2.39189 5.69327 3.05118 4.70658C3.71047 3.71988 4.64754 2.95085 5.7439 2.49672C6.84026 2.0426 8.04666 1.92378 9.21054 2.15529C10.3744 2.3868 11.4435 2.95824 12.2826 3.79736C13.1218 4.63647 13.6932 5.70557 13.9247 6.86946C14.1562 8.03334 14.0374 9.23975 13.5833 10.3361C13.1292 11.4325 12.3601 12.3695 11.3734 13.0288C10.3867 13.6881 9.22669 14.04 8.04 14.04C6.44934 14.0381 4.92419 13.4054 3.79941 12.2806C2.67464 11.1558 2.04191 9.63067 2.04 8.04Z" fill="var(--fill-0, #333333)"/>
</svg>
