<svg preserveAspectRatio="none" width="100%" height="100%" overflow="visible" style="display: block;" viewBox="0 0 18 21" fill="none" xmlns="http://www.w3.org/2000/svg">
<path id="Vector" d="M17.25 3H12.75V1.875C12.75 1.37772 12.5525 0.900806 12.2008 0.549175C11.8492 0.197544 11.3723 0 10.875 0H7.125C6.62772 0 6.15081 0.197544 5.79917 0.549175C5.44754 0.900806 5.25 1.37772 5.25 1.875V3H0.75C0.551088 3 0.360322 3.07902 0.21967 3.21967C0.0790178 3.36032 0 3.55109 0 3.75C0 3.94891 0.0790178 4.13968 0.21967 4.28033C0.360322 4.42098 0.551088 4.5 0.75 4.5H1.54688L2.4375 18.7931C2.50406 20.0517 3.46875 21 4.6875 21H13.3125C14.5373 21 15.4828 20.0728 15.5625 18.7969L16.4531 4.5H17.25C17.4489 4.5 17.6397 4.42098 17.7803 4.28033C17.921 4.13968 18 3.94891 18 3.75C18 3.55109 17.921 3.36032 17.7803 3.21967C17.6397 3.07902 17.4489 3 17.25 3ZM6.02672 18H6C5.80563 18.0001 5.61881 17.9248 5.4789 17.7899C5.33899 17.6549 5.25692 17.471 5.25 17.2767L4.875 6.77672C4.86791 6.57781 4.94014 6.38423 5.07578 6.23856C5.21142 6.0929 5.39937 6.00709 5.59828 6C5.79719 5.99291 5.99077 6.06514 6.13644 6.20078C6.2821 6.33642 6.36791 6.52437 6.375 6.72328L6.75 17.2233C6.75357 17.3218 6.73769 17.42 6.70326 17.5124C6.66884 17.6048 6.61654 17.6894 6.54937 17.7616C6.48219 17.8337 6.40146 17.8919 6.31178 17.9328C6.2221 17.9737 6.12523 17.9966 6.02672 18ZM9.75 17.25C9.75 17.4489 9.67098 17.6397 9.53033 17.7803C9.38968 17.921 9.19891 18 9 18C8.80109 18 8.61032 17.921 8.46967 17.7803C8.32902 17.6397 8.25 17.4489 8.25 17.25V6.75C8.25 6.55109 8.32902 6.36032 8.46967 6.21967C8.61032 6.07902 8.80109 6 9 6C9.19891 6 9.38968 6.07902 9.53033 6.21967C9.67098 6.36032 9.75 6.55109 9.75 6.75V17.25ZM11.25 3H6.75V1.875C6.74943 1.8256 6.75875 1.77658 6.77739 1.73083C6.79604 1.68507 6.82364 1.64351 6.85857 1.60858C6.89351 1.57364 6.93507 1.54604 6.98083 1.52739C7.02658 1.50875 7.0756 1.49943 7.125 1.5H10.875C10.9244 1.49943 10.9734 1.50875 11.0192 1.52739C11.0649 1.54604 11.1065 1.57364 11.1414 1.60858C11.1764 1.64351 11.204 1.68507 11.2226 1.73083C11.2413 1.77658 11.2506 1.8256 11.25 1.875V3ZM12.75 17.2767C12.7431 17.471 12.661 17.6549 12.5211 17.7899C12.3812 17.9248 12.1944 18.0001 12 18H11.9728C11.8743 17.9965 11.7775 17.9736 11.6879 17.9327C11.5983 17.8917 11.5176 17.8335 11.4505 17.7614C11.3833 17.6893 11.3311 17.6046 11.2967 17.5123C11.2623 17.42 11.2464 17.3218 11.25 17.2233L11.625 6.72328C11.6285 6.62479 11.6514 6.52795 11.6923 6.4383C11.7332 6.34865 11.7914 6.26794 11.8636 6.20078C11.9357 6.13361 12.0203 6.08131 12.1127 6.04687C12.205 6.01242 12.3032 5.99649 12.4017 6C12.5002 6.00351 12.597 6.02638 12.6867 6.06732C12.7763 6.10825 12.8571 6.16644 12.9242 6.23856C12.9914 6.31069 13.0437 6.39533 13.0781 6.48767C13.1126 6.58001 13.1285 6.67823 13.125 6.77672L12.75 17.2767Z" fill="var(--fill-0, #333333)"/>
</svg>
