<svg preserveAspectRatio="none" width="100%" height="100%" overflow="visible" style="display: block;" viewBox="0 0 20 20" fill="none" xmlns="http://www.w3.org/2000/svg">
<g id="Vector">
<path d="M8.25 12C8.10171 11.9999 7.95678 11.9559 7.8335 11.8735C7.71023 11.7911 7.61416 11.674 7.55742 11.537C7.50068 11.4 7.48583 11.2492 7.51474 11.1038C7.54365 10.9583 7.61502 10.8247 7.71984 10.7198L15.1233 3.31641C14.7401 3.10837 14.311 2.99959 13.875 3H2.625C1.92904 3.00074 1.26179 3.27754 0.769667 3.76967C0.277545 4.26179 0.000744481 4.92904 0 5.625V16.875C0.000744481 17.571 0.277545 18.2382 0.769667 18.7303C1.26179 19.2225 1.92904 19.4993 2.625 19.5H13.875C14.571 19.4993 15.2382 19.2225 15.7303 18.7303C16.2225 18.2382 16.4993 17.571 16.5 16.875V5.625C16.5004 5.18902 16.3916 4.75987 16.1836 4.37672L8.78016 11.7802C8.71067 11.85 8.62805 11.9054 8.53706 11.9431C8.44607 11.9808 8.34851 12.0002 8.25 12Z" fill="#333333"/>
<path d="M18.75 0H13.5C13.3011 0 13.1103 0.0790176 12.9697 0.21967C12.829 0.360322 12.75 0.551088 12.75 0.75C12.75 0.948912 12.829 1.13968 12.9697 1.28033C13.1103 1.42098 13.3011 1.5 13.5 1.5H16.9392L15.1233 3.31641C15.5717 3.55999 15.94 3.92827 16.1836 4.37672L18 2.56078V6C18 6.19891 18.079 6.38968 18.2197 6.53033C18.3603 6.67098 18.5511 6.75 18.75 6.75C18.9489 6.75 19.1397 6.67098 19.2803 6.53033C19.421 6.38968 19.5 6.19891 19.5 6V0.75C19.5 0.551088 19.421 0.360322 19.2803 0.21967C19.1397 0.0790176 18.9489 0 18.75 0Z" fill="#333333"/>
</g>
</svg>
