<svg preserveAspectRatio="none" width="100%" height="100%" overflow="visible" style="display: block;" viewBox="0 0 20 20" fill="none" xmlns="http://www.w3.org/2000/svg">
<path id="Vector" fill-rule="evenodd" clip-rule="evenodd" d="M0 9.75C0 4.36704 4.36704 0 9.75 0C15.133 0 19.5 4.36704 19.5 9.75C19.5 15.133 15.133 19.5 9.75 19.5C4.36704 19.5 0 15.133 0 9.75ZM9.75 1.5C5.19546 1.5 1.5 5.19546 1.5 9.75C1.5 14.3045 5.19546 18 9.75 18C14.3045 18 18 14.3045 18 9.75C18 5.19546 14.3045 1.5 9.75 1.5ZM6.21967 6.21967C6.51256 5.92678 6.98744 5.92678 7.28033 6.21967L9.75 8.68934L12.2197 6.21967C12.5126 5.92678 12.9874 5.92678 13.2803 6.21967C13.5732 6.51256 13.5732 6.98744 13.2803 7.28033L10.8107 9.75L13.2803 12.2197C13.5732 12.5126 13.5732 12.9874 13.2803 13.2803C12.9874 13.5732 12.5126 13.5732 12.2197 13.2803L9.75 10.8107L7.28033 13.2803C6.98744 13.5732 6.51256 13.5732 6.21967 13.2803C5.92678 12.9874 5.92678 12.5126 6.21967 12.2197L8.68934 9.75L6.21967 7.28033C5.92678 6.98744 5.92678 6.51256 6.21967 6.21967Z" fill="var(--fill-0, #333333)"/>
</svg>
