<svg preserveAspectRatio="none" width="100%" height="100%" overflow="visible" style="display: block;" viewBox="0 0 18 21" fill="none" xmlns="http://www.w3.org/2000/svg">
<path id="Vector" d="M0.75 21C0.3375 21 0 20.6625 0 20.25V1.69219C0 1.29375 0.215625 0.91875 0.557813 0.721875C1.125 0.39375 2.26406 0 4.5 0C6.24375 0 8.19375 0.689063 9.91875 1.29844C11.3016 1.78594 12.6141 2.25 13.5 2.25C14.6484 2.24531 15.7687 2.02031 16.8281 1.57031C17.0391 1.48125 17.2687 1.48125 17.4797 1.56563C17.6859 1.65 17.85 1.81406 17.9391 2.02031C17.9813 2.12344 18.0047 2.23594 18.0047 2.34844V12.6281C18.0047 13.0031 17.7844 13.3359 17.4422 13.4859C17.0344 13.6641 15.5438 14.25 13.5047 14.25C12.375 14.25 10.9547 13.9172 9.45469 13.5609C7.76719 13.1625 6.02344 12.75 4.50469 12.75C2.775 12.75 1.89375 13.0125 1.50469 13.1766V20.25C1.5 20.6625 1.1625 21 0.75 21ZM4.5 11.25C6.19688 11.25 8.10938 11.7 9.79688 12.0984C11.2078 12.4313 12.5438 12.75 13.5 12.75C14.8781 12.75 15.9422 12.45 16.5 12.2484V3.28594C15.5344 3.59062 14.5266 3.74531 13.5 3.75C12.3516 3.75 10.9266 3.24375 9.4125 2.71406C7.72969 2.11406 5.98594 1.5 4.5 1.5C2.76094 1.5 1.87969 1.7625 1.5 1.92656V11.5922C2.15625 11.4047 3.11719 11.25 4.5 11.25Z" fill="var(--fill-0, #0070C4)"/>
</svg>
