<svg preserveAspectRatio="none" width="100%" height="100%" overflow="visible" style="display: block;" viewBox="0 0 19 10" fill="none" xmlns="http://www.w3.org/2000/svg">
<path id="Vector" fill-rule="evenodd" clip-rule="evenodd" d="M0 0.625C0 0.279822 0.279822 0 0.625 0H18.125C18.4702 0 18.75 0.279822 18.75 0.625C18.75 0.970178 18.4702 1.25 18.125 1.25H0.625C0.279822 1.25 0 0.970178 0 0.625ZM3.125 5C3.125 4.65482 3.40482 4.375 3.75 4.375H15C15.3452 4.375 15.625 4.65482 15.625 5C15.625 5.34518 15.3452 5.625 15 5.625H3.75C3.40482 5.625 3.125 5.34518 3.125 5ZM6.875 9.375C6.875 9.02982 7.15482 8.75 7.5 8.75H11.25C11.5952 8.75 11.875 9.02982 11.875 9.375C11.875 9.72018 11.5952 10 11.25 10H7.5C7.15482 10 6.875 9.72018 6.875 9.375Z" fill="var(--fill-0, #0070C4)"/>
</svg>
