<svg preserveAspectRatio="none" width="100%" height="100%" overflow="visible" style="display: block;" viewBox="0 0 17 17" fill="none" xmlns="http://www.w3.org/2000/svg">
<path id="Vector" fill-rule="evenodd" clip-rule="evenodd" d="M10.625 0.625C10.625 0.279822 10.9048 0 11.25 0H15.625C15.9702 0 16.25 0.279822 16.25 0.625V5C16.25 5.34518 15.9702 5.625 15.625 5.625C15.2798 5.625 15 5.34518 15 5V2.13388L7.31694 9.81694C7.07286 10.061 6.67714 10.061 6.43306 9.81694C6.18898 9.57286 6.18898 9.17714 6.43306 8.93306L14.1161 1.25H11.25C10.9048 1.25 10.625 0.970178 10.625 0.625ZM2.1875 3.75C1.93886 3.75 1.7004 3.84877 1.52459 4.02459C1.34877 4.2004 1.25 4.43886 1.25 4.6875V14.0625C1.25 14.3111 1.34877 14.5496 1.52459 14.7254C1.7004 14.9012 1.93886 15 2.1875 15H11.5625C11.6856 15 11.8075 14.9758 11.9213 14.9286C12.035 14.8815 12.1384 14.8125 12.2254 14.7254C12.3125 14.6384 12.3815 14.535 12.4286 14.4213C12.4758 14.3075 12.5 14.1856 12.5 14.0625V6.875C12.5 6.52982 12.7798 6.25 13.125 6.25C13.4702 6.25 13.75 6.52982 13.75 6.875V14.0625C13.75 14.3498 13.6934 14.6342 13.5835 14.8996C13.4736 15.165 13.3124 15.4062 13.1093 15.6093C12.9062 15.8124 12.665 15.9736 12.3996 16.0835C12.1342 16.1934 11.8498 16.25 11.5625 16.25H2.1875C1.60734 16.25 1.05094 16.0195 0.640704 15.6093C0.230468 15.1991 0 14.6427 0 14.0625V4.6875C0 4.10734 0.230468 3.55094 0.640704 3.1407C1.05094 2.73047 1.60734 2.5 2.1875 2.5H8.72969C9.07487 2.5 9.35469 2.77982 9.35469 3.125C9.35469 3.47018 9.07487 3.75 8.72969 3.75H2.1875Z" fill="var(--fill-0, #A91A10)"/>
</svg>
