<svg preserveAspectRatio="none" width="100%" height="100%" overflow="visible" style="display: block;" viewBox="0 0 12 12" fill="none" xmlns="http://www.w3.org/2000/svg">
<path id="Vector" d="M6.5625 0.75C6.5625 0.335786 6.22671 0 5.8125 0C5.39829 0 5.0625 0.335786 5.0625 0.75V5.0625H0.75C0.335786 5.0625 0 5.39829 0 5.8125C0 6.22671 0.335786 6.5625 0.75 6.5625H5.0625V10.875C5.0625 11.2892 5.39829 11.625 5.8125 11.625C6.22671 11.625 6.5625 11.2892 6.5625 10.875V6.5625H10.875C11.2892 6.5625 11.625 6.22671 11.625 5.8125C11.625 5.39829 11.2892 5.0625 10.875 5.0625H6.5625V0.75Z" fill="var(--fill-0, #0070C4)"/>
</svg>
