<svg preserveAspectRatio="none" width="100%" height="100%" overflow="visible" style="display: block;" viewBox="0 0 5 20" fill="none" xmlns="http://www.w3.org/2000/svg">
<g id="Vector">
<path d="M2.25 12C3.49264 12 4.5 10.9926 4.5 9.75C4.5 8.50736 3.49264 7.5 2.25 7.5C1.00736 7.5 0 8.50736 0 9.75C0 10.9926 1.00736 12 2.25 12Z" fill="#0070C4"/>
<path d="M2.25 19.5C3.49264 19.5 4.5 18.4926 4.5 17.25C4.5 16.0074 3.49264 15 2.25 15C1.00736 15 0 16.0074 0 17.25C0 18.4926 1.00736 19.5 2.25 19.5Z" fill="#0070C4"/>
<path d="M2.25 4.5C3.49264 4.5 4.5 3.49264 4.5 2.25C4.5 1.00736 3.49264 0 2.25 0C1.00736 0 0 1.00736 0 2.25C0 3.49264 1.00736 4.5 2.25 4.5Z" fill="#0070C4"/>
</g>
</svg>
