<svg preserveAspectRatio="none" width="100%" height="100%" overflow="visible" style="display: block;" viewBox="0 0 20 20" fill="none" xmlns="http://www.w3.org/2000/svg">
<g id="Vector">
<path fill-rule="evenodd" clip-rule="evenodd" d="M0 9.75C0 4.36704 4.36704 0 9.75 0C15.133 0 19.5 4.36704 19.5 9.75C19.5 15.133 15.133 19.5 9.75 19.5C4.36704 19.5 0 15.133 0 9.75ZM9.75 1.5C5.19546 1.5 1.5 5.19546 1.5 9.75C1.5 14.3045 5.19546 18 9.75 18C14.3045 18 18 14.3045 18 9.75C18 5.19546 14.3045 1.5 9.75 1.5Z" fill="#333333"/>
<path fill-rule="evenodd" clip-rule="evenodd" d="M14.7324 5.42572C15.0496 5.69214 15.0907 6.16523 14.8243 6.48239L8.52428 13.9824C8.38465 14.1486 8.17986 14.2462 7.96281 14.2499C7.74576 14.2536 7.53775 14.1631 7.39253 14.0017L4.69253 11.0017C4.41544 10.6938 4.44039 10.2196 4.74828 9.94253C5.05616 9.66544 5.53038 9.69039 5.80747 9.99828L7.93048 12.3572L13.6757 5.51761C13.9421 5.20044 14.4152 5.1593 14.7324 5.42572Z" fill="#333333"/>
</g>
</svg>
