<svg preserveAspectRatio="none" width="100%" height="100%" overflow="visible" style="display: block;" viewBox="0 0 21 20" fill="none" xmlns="http://www.w3.org/2000/svg">
<g id="Vector">
<path d="M18.2233 19.3313H2.2483C1.87799 19.3313 1.50768 19.2375 1.18424 19.0641C0.654551 18.7781 0.270176 18.3047 0.096738 17.7281C-0.0766995 17.1516 -0.0157619 16.5422 0.270176 16.0172L8.25299 1.18125C8.64674 0.45 9.40611 0 10.2358 0C11.0655 0 11.8249 0.454688 12.2186 1.18125L20.2061 16.0172C20.3842 16.3453 20.4733 16.7109 20.4733 17.0859C20.4733 17.6859 20.2389 18.2531 19.8124 18.675C19.3905 19.1016 18.828 19.3313 18.2233 19.3313ZM2.2483 17.8313H18.228C18.4296 17.8313 18.6171 17.7516 18.7577 17.6109C18.8983 17.4703 18.978 17.2828 18.978 17.0813C18.978 16.9594 18.9452 16.8328 18.8889 16.725L10.8967 1.89375C10.7046 1.5375 10.3717 1.5 10.2358 1.5C10.0999 1.5 9.76705 1.5375 9.57486 1.89375L1.58736 16.7297C1.49361 16.9078 1.47018 17.1094 1.53111 17.3016C1.58736 17.4938 1.71861 17.6531 1.89205 17.7469C1.99986 17.8031 2.12174 17.8313 2.2483 17.8313Z" fill="#333333"/>
<path d="M10.2358 13.2936C9.83737 13.2936 9.50455 12.9795 9.4858 12.5811L9.21862 6.86231C9.21862 6.85763 9.21862 6.85294 9.21862 6.84825V6.82481C9.21393 6.26231 9.66393 5.80294 10.2264 5.79825C10.2452 5.79825 10.2639 5.79825 10.2827 5.79825C10.8452 5.82169 11.2811 6.29981 11.253 6.86231L10.9858 12.5811C10.9671 12.9795 10.6342 13.2936 10.2358 13.2936Z" fill="#333333"/>
<path d="M10.2358 16.284C9.72015 16.284 9.29827 15.8621 9.29827 15.3465C9.29827 14.8309 9.72015 14.409 10.2358 14.409C10.7514 14.409 11.1733 14.8309 11.1733 15.3465C11.1733 15.8621 10.7514 16.284 10.2358 16.284Z" fill="#333333"/>
</g>
</svg>
