<svg preserveAspectRatio="none" width="100%" height="100%" overflow="visible" style="display: block;" viewBox="0 0 21 21" fill="none" xmlns="http://www.w3.org/2000/svg">
<g id="Vector">
<path d="M12.375 10.5C12.9963 10.5 13.5 9.99632 13.5 9.375C13.5 8.75368 12.9963 8.25 12.375 8.25C11.7537 8.25 11.25 8.75368 11.25 9.375C11.25 9.99632 11.7537 10.5 12.375 10.5Z" fill="#333333"/>
<path d="M16.125 10.5C16.7463 10.5 17.25 9.99632 17.25 9.375C17.25 8.75368 16.7463 8.25 16.125 8.25C15.5037 8.25 15 8.75368 15 9.375C15 9.99632 15.5037 10.5 16.125 10.5Z" fill="#333333"/>
<path d="M12.375 14.25C12.9963 14.25 13.5 13.7463 13.5 13.125C13.5 12.5037 12.9963 12 12.375 12C11.7537 12 11.25 12.5037 11.25 13.125C11.25 13.7463 11.7537 14.25 12.375 14.25Z" fill="#333333"/>
<path d="M16.125 14.25C16.7463 14.25 17.25 13.7463 17.25 13.125C17.25 12.5037 16.7463 12 16.125 12C15.5037 12 15 12.5037 15 13.125C15 13.7463 15.5037 14.25 16.125 14.25Z" fill="#333333"/>
<path d="M4.875 14.25C5.49632 14.25 6 13.7463 6 13.125C6 12.5037 5.49632 12 4.875 12C4.25368 12 3.75 12.5037 3.75 13.125C3.75 13.7463 4.25368 14.25 4.875 14.25Z" fill="#333333"/>
<path d="M8.625 14.25C9.24632 14.25 9.75 13.7463 9.75 13.125C9.75 12.5037 9.24632 12 8.625 12C8.00368 12 7.5 12.5037 7.5 13.125C7.5 13.7463 8.00368 14.25 8.625 14.25Z" fill="#333333"/>
<path d="M4.875 18C5.49632 18 6 17.4963 6 16.875C6 16.2537 5.49632 15.75 4.875 15.75C4.25368 15.75 3.75 16.2537 3.75 16.875C3.75 17.4963 4.25368 18 4.875 18Z" fill="#333333"/>
<path d="M8.625 18C9.24632 18 9.75 17.4963 9.75 16.875C9.75 16.2537 9.24632 15.75 8.625 15.75C8.00368 15.75 7.5 16.2537 7.5 16.875C7.5 17.4963 8.00368 18 8.625 18Z" fill="#333333"/>
<path d="M12.375 18C12.9963 18 13.5 17.4963 13.5 16.875C13.5 16.2537 12.9963 15.75 12.375 15.75C11.7537 15.75 11.25 16.2537 11.25 16.875C11.25 17.4963 11.7537 18 12.375 18Z" fill="#333333"/>
<path fill-rule="evenodd" clip-rule="evenodd" d="M5.25 0.75C5.25 0.335786 4.91421 0 4.5 0C4.08579 0 3.75 0.335786 3.75 0.75V1.5H3C1.34315 1.5 0 2.84315 0 4.5V18C0 19.6569 1.34315 21 3 21H18C19.6569 21 21 19.6569 21 18V4.5C21 2.84315 19.6569 1.5 18 1.5H17.25V0.75C17.25 0.335786 16.9142 0 16.5 0C16.0858 0 15.75 0.335786 15.75 0.75V1.5H5.25V0.75ZM18 3C18.8284 3 19.5 3.67157 19.5 4.5V5.25H1.5V4.5C1.5 3.67157 2.17157 3 3 3H18ZM1.5 6.75V18C1.5 18.8284 2.17157 19.5 3 19.5H18C18.8284 19.5 19.5 18.8284 19.5 18V6.75H1.5Z" fill="#333333"/>
</g>
</svg>
