<svg preserveAspectRatio="none" width="100%" height="100%" overflow="visible" style="display: block;" viewBox="0 0 20 20" fill="none" xmlns="http://www.w3.org/2000/svg">
<g id="Vector">
<path fill-rule="evenodd" clip-rule="evenodd" d="M0 9.75C0 4.36573 4.36573 0 9.75 0C15.1343 0 19.5 4.36573 19.5 9.75C19.5 15.1343 15.1343 19.5 9.75 19.5C4.36573 19.5 0 15.1343 0 9.75ZM9.75 1.56C5.22729 1.56 1.56 5.22729 1.56 9.75C1.56 14.2727 5.22729 17.94 9.75 17.94C14.2727 17.94 17.94 14.2727 17.94 9.75C17.94 5.22729 14.2727 1.56 9.75 1.56ZM7.605 8.385C7.605 7.95422 7.95422 7.605 8.385 7.605H9.945C10.3758 7.605 10.725 7.95422 10.725 8.385V13.455H12.09C12.5208 13.455 12.87 13.8042 12.87 14.235C12.87 14.6658 12.5208 15.015 12.09 15.015H7.8C7.36922 15.015 7.02 14.6658 7.02 14.235C7.02 13.8042 7.36922 13.455 7.8 13.455H9.165V9.165H8.385C7.95422 9.165 7.605 8.81578 7.605 8.385Z" fill="#333333"/>
<path d="M9.75 3.9975C9.49931 3.9975 9.25425 4.07184 9.04581 4.21111C8.83738 4.35039 8.67492 4.54834 8.57898 4.77995C8.48305 5.01155 8.45795 5.26641 8.50685 5.51228C8.55576 5.75815 8.67648 5.98399 8.85374 6.16126C9.031 6.33852 9.25685 6.45924 9.50272 6.50814C9.74859 6.55705 10.0034 6.53195 10.2351 6.43602C10.4667 6.34008 10.6646 6.17762 10.8039 5.96918C10.9432 5.76075 11.0175 5.51569 11.0175 5.265C11.0175 4.92884 10.884 4.60644 10.6463 4.36874C10.4086 4.13104 10.0862 3.9975 9.75 3.9975Z" fill="#333333"/>
</g>
</svg>
