<svg preserveAspectRatio="none" width="100%" height="100%" overflow="visible" style="display: block;" viewBox="0 0 11 16" fill="none" xmlns="http://www.w3.org/2000/svg">
<path id="Vector" d="M9.48828 8.59766C10.1289 8.59766 10.4745 9.34938 10.0576 9.83594L5.68945 14.9326C5.61907 15.0147 5.53183 15.0808 5.43359 15.126C5.33531 15.1712 5.22829 15.1953 5.12012 15.1953C5.01199 15.1953 4.90488 15.1712 4.80664 15.126C4.7085 15.0808 4.62111 15.0146 4.55078 14.9326L0.182617 9.83594C-0.235508 9.34938 0.110352 8.59766 0.750977 8.59766H9.48828ZM5.11914 0C5.22724 9.45072e-09 5.33439 0.0232222 5.43262 0.0683594C5.53083 0.113521 5.61809 0.179681 5.68848 0.261719L10.0566 5.35938C10.4747 5.84582 10.1296 6.5973 9.48926 6.59766H0.750977C0.110657 6.5974 -0.234874 5.84586 0.181641 5.35938L4.5498 0.261719C4.62015 0.179678 4.7075 0.11355 4.80566 0.0683594C4.90386 0.0232057 5.01107 4.17523e-05 5.11914 0Z" fill="var(--fill-0, #ADADAD)"/>
</svg>
