<svg preserveAspectRatio="none" width="100%" height="100%" overflow="visible" style="display: block;" viewBox="0 0 21 21" fill="none" xmlns="http://www.w3.org/2000/svg">
<path id="Vector" fill-rule="evenodd" clip-rule="evenodd" d="M3.74778 3.26335e-06L3.75 0H13.875L13.8771 3.03984e-06C14.7709 0.00254573 15.6273 0.358716 16.2593 0.990701C16.8913 1.62268 17.2475 2.47911 17.25 3.37287C17.25 3.37879 17.25 3.3847 17.2498 3.39062L17.2423 3.75H17.5781C19.468 3.75 21 5.28203 21 7.17188V17.5781C21 19.468 19.468 21 17.5781 21H7.17188C5.28203 21 3.75 19.468 3.75 17.5781V17.25H3.375L3.37287 17.25C2.47911 17.2475 1.62268 16.8913 0.990701 16.2593C0.358716 15.6273 0.00254573 14.7709 3.03984e-06 13.8771L0 13.875V3.75L3.26335e-06 3.74778C0.0029384 2.75471 0.398735 1.80315 1.10095 1.10095C1.80315 0.398735 2.75471 0.0029384 3.74778 3.26335e-06ZM5.25 17.5781C5.25 18.6395 6.11045 19.5 7.17188 19.5H17.5781C18.6395 19.5 19.5 18.6395 19.5 17.5781V7.17188C19.5 6.11045 18.6395 5.25 17.5781 5.25H16.4791C16.4776 5.25 16.4761 5.25 16.4746 5.25H7.17188C6.11045 5.25 5.25 6.11045 5.25 7.17188V17.5781ZM15.742 3.75H7.17188C5.28203 3.75 3.75 5.28203 3.75 7.17188V15.75H3.37621C2.87913 15.7483 2.40287 15.5501 2.05136 15.1986C1.69987 14.8471 1.50167 14.3709 1.5 13.8738V3.75119C1.50203 3.15478 1.73986 2.58335 2.16161 2.16161C2.58335 1.73986 3.15478 1.50203 3.75119 1.5H13.8738C14.3709 1.50167 14.8471 1.69987 15.1986 2.05136C15.5484 2.40117 15.7464 2.87454 15.75 3.36902L15.742 3.75Z" fill="var(--fill-0, #333333)"/>
</svg>
