<svg preserveAspectRatio="none" width="100%" height="100%" overflow="visible" style="display: block;" viewBox="0 0 20 20" fill="none" xmlns="http://www.w3.org/2000/svg">
<g id="Vector">
<path fill-rule="evenodd" clip-rule="evenodd" d="M0 9.75C0 4.36704 4.36704 0 9.75 0C15.133 0 19.5 4.36704 19.5 9.75C19.5 15.133 15.133 19.5 9.75 19.5C4.36704 19.5 0 15.133 0 9.75ZM9.75 1.5C5.19546 1.5 1.5 5.19546 1.5 9.75C1.5 14.3045 5.19546 18 9.75 18C14.3045 18 18 14.3045 18 9.75C18 5.19546 14.3045 1.5 9.75 1.5Z" fill="#333333"/>
<path fill-rule="evenodd" clip-rule="evenodd" d="M9.75 3C10.1642 3 10.5 3.33579 10.5 3.75V9.75H14.25C14.6642 9.75 15 10.0858 15 10.5C15 10.9142 14.6642 11.25 14.25 11.25H9.75C9.33579 11.25 9 10.9142 9 10.5V3.75C9 3.33579 9.33579 3 9.75 3Z" fill="#333333"/>
</g>
</svg>
