<svg preserveAspectRatio="none" width="100%" height="100%" overflow="visible" style="display: block;" viewBox="0 0 18 18" fill="none" xmlns="http://www.w3.org/2000/svg">
<path id="Vector" d="M15.9505 5.25837L12.3418 1.64969L13.5259 0.465585C13.8454 0.146066 14.2448 -0.00899487 14.7241 0.000402756C15.2034 0.00980038 15.6028 0.174259 15.9223 0.493778L17.1346 1.70607C17.4541 2.02559 17.6139 2.42029 17.6139 2.89017C17.6139 3.36005 17.4541 3.75475 17.1346 4.07427L15.9505 5.25837ZM0.845786 17.6212C0.601448 17.6212 0.399399 17.5414 0.239639 17.3816C0.0798799 17.2218 0 17.0198 0 16.7755V14.3509C0 14.2381 0.0187955 14.1348 0.056386 14.0408C0.0939764 13.9468 0.159759 13.8528 0.253736 13.7589L11.2752 2.71316L14.8839 6.32184L3.86242 17.3675C3.76845 17.4615 3.67447 17.5273 3.58049 17.5649C3.48652 17.6025 3.38314 17.6212 3.27037 17.6212H0.845786Z" fill="var(--fill-0, #333333)"/>
</svg>
